<svg viewBox="0 0 109 62" xmlns="http://www.w3.org/2000/svg" xmlns:xlink="http://www.w3.org/1999/xlink"><svg viewBox="0 0 47 47" width="47" height="47" id="play-sound" x="62"><path d="M23.5 1C11.074 1 1 11.073 1 23.5 1 35.926 11.074 46 23.5 46S46 35.926 46 23.5C46 11.073 35.926 1 23.5 1zM19 33V15l13 9-13 9z" fill="#ffb706"/></svg><svg viewBox="0 0 62 62" width="62" height="62" id="play-video"><circle cx="31" cy="31" r="30" fill="#fff"/><path d="M31 8.5C18.574 8.5 8.5 18.573 8.5 31c0 12.426 10.074 22.5 22.5 22.5S53.5 43.426 53.5 31C53.5 18.573 43.426 8.5 31 8.5zm-5 32v-18l13 9-13 9z" fill="#414753"/><path d="M4.557 43.864c.005.108.007.232.008.344V44.2c0-.116-.003-.226-.008-.336z" fill="#fff"/></svg></svg>